<svg width="159" height="100" viewBox="0 0 159 100" fill="none" xmlns="http://www.w3.org/2000/svg" style="padding-top: 20px">
    <path d="M0 17.1898H158.693V82.1575H0V17.1898Z" fill="#CDF5FD"/>
    <path d="M0 4.69976L7.33721 6.9705C12.4733 8.51874 12.5209 8.55314 20.1249 9.65411C27.6518 10.7551 37.7999 8.07147 45.2937 6.9705C52.8978 5.86953 60.5018 5.86953 67.9957 7.70677C75.5667 9.51649 83.0936 13.2323 90.6976 12.4753C98.2356 11.7184 105.796 6.62645 113.4 3.6676C120.904 0.708747 128.497 0.0206432 135.991 0C143.584 0.0206432 151.089 0.708747 154.946 1.10097L158.693 1.46566V21.2831H154.913C151.133 21.2831 143.595 21.2831 135.991 21.2831C128.464 21.2831 120.893 21.2831 113.4 21.2831C105.796 21.2831 98.1915 21.2831 90.6976 21.2831C83.1266 21.2831 75.5997 21.2831 67.9957 21.2831C60.4577 21.2831 52.8978 21.2831 45.2937 21.2831C37.7888 21.2831 30.1958 21.2831 22.702 21.2831C15.1089 21.2831 7.60405 21.2831 3.74693 21.2831H0V4.69976Z" fill="#CDF5FD"  />
    <path d="M158.903 95.0866L151.566 92.7126C146.43 91.094 146.382 91.058 138.778 89.907C131.251 88.756 121.103 91.5616 113.61 92.7126C106.005 93.8636 98.4014 93.8636 90.9075 91.9429C83.3366 90.0509 75.8096 86.1662 68.2056 86.9575C60.6677 87.7488 53.1077 93.0723 45.5036 96.1657C37.9988 99.259 30.4057 99.9784 22.9119 100C15.3188 99.9784 7.81398 99.259 3.95685 98.849L0.209914 98.4677V77.7494H3.98991C7.7699 77.7494 15.3078 77.7494 22.9119 77.7494C30.4388 77.7494 38.0098 77.7494 45.5036 77.7494C53.1077 77.7494 60.7117 77.7494 68.2056 77.7494C75.7766 77.7494 83.3035 77.7494 90.9075 77.7494C98.4455 77.7494 106.005 77.7494 113.61 77.7494C121.114 77.7494 128.707 77.7494 136.201 77.7494C143.794 77.7494 151.299 77.7494 155.156 77.7494H158.903V95.0866Z" fill="#CDF5FD"/>
</svg>
